<svg id="Capa_1" enable-background="new 0 0 512 512" viewBox="0 0 512 512" xmlns="http://www.w3.org/2000/svg"><g><path d="m359.655 490.93c31.489-9.891 55.843-24.671 88.009-56.837s48.905-60.095 56.837-88.009v-183.316c0-33.963-27.533-61.496-61.496-61.496h-266.668c-33.963 0-61.496 27.533-61.496 61.496v266.667c0 33.963 27.533 61.496 61.496 61.496h183.318z" fill="#f7e969"/><path d="m283.014 101.272h-106.677c-33.963 0-61.496 27.532-61.496 61.496v266.667c0 33.963 27.533 61.496 61.496 61.496h135.287c-41.749-64.088-52.655-286.954-28.61-389.659z" fill="#f5c956"/><path d="m504.5 346.085c0 26.051-9.126 71.388-41.292 103.554s-77.503 41.292-103.554 41.292c22.036-13.095 28.403-27.943 28.403-54.947 0-33.963 27.533-61.496 61.496-61.496 27.004 0 41.852-6.368 54.947-28.403z" fill="#f5c956"/><path d="m211.483 163.896-64.117-64.117c-7.798-7.798-7.798-20.441 0-28.239s20.442-7.798 28.239 0l64.117 64.117c7.798 7.798 7.798 20.441 0 28.239-7.797 7.798-20.441 7.798-28.239 0z" fill="#8596a5"/><circle cx="155.999" cy="80.173" fill="#ff9ed4" r="59.103"/><path d="m178.625 134.78c-42.696-26.918-39.116-87.985-17.172-113.45-1.797-.164-3.614-.26-5.453-.26-32.642 0-59.103 26.461-59.103 59.103s26.461 59.103 59.103 59.103c8.015-.001 15.655-1.605 22.625-4.496z" fill="#ff83b4"/><ellipse cx="90.553" cy="344.256" fill="#38d39a" rx="83.053" ry="83.053" transform="matrix(.707 -.707 .707 .707 -216.903 164.861)"/><path d="m90.553 261.203c-45.869 0-83.053 37.184-83.053 83.053s37.184 83.053 83.053 83.053c10.224 0 20.011-1.857 29.056-5.237-42.322-40.824-35.514-127.963-15.416-159.735-4.44-.734-8.992-1.134-13.64-1.134z" fill="#00c67f"/><g><g fill="#ffa1ac"><ellipse cx="237.246" cy="258.078" rx="28.919" ry="23.03"/><ellipse cx="394" cy="258.078" rx="28.92" ry="23.03"/></g></g><path d="m237.194 324.256c0 4.142 3.358 7.5 7.5 7.5h129.953c4.142 0 7.5-3.358 7.5-7.5s-3.358-7.5-7.5-7.5h-129.953c-4.142 0-7.5 3.358-7.5 7.5zm118.686-91.239c0 4.142 3.358 7.5 7.5 7.5s7.5-3.358 7.5-7.5c0-3.455 2.81-6.265 6.265-6.265s6.265 2.811 6.265 6.265c0 4.142 3.358 7.5 7.5 7.5s7.5-3.358 7.5-7.5c0-11.726-9.54-21.265-21.265-21.265s-21.265 9.54-21.265 21.265zm-40.257 30.241c7.763 0 15.146-3.362 20.255-9.225 2.721-3.123 2.396-7.86-.727-10.582-3.123-2.721-7.86-2.396-10.582.727-2.259 2.593-5.521 4.08-8.947 4.08-3.427 0-6.688-1.487-8.947-4.08-2.723-3.123-7.459-3.447-10.582-.727-3.122 2.722-3.448 7.459-.727 10.582 5.111 5.863 12.493 9.225 20.257 9.225zm-189.961 73.498h-27.609v-27.608c0-4.142-3.358-7.5-7.5-7.5s-7.5 3.358-7.5 7.5v27.608h-27.608c-4.142 0-7.5 3.358-7.5 7.5s3.358 7.5 7.5 7.5h27.608v27.608c0 4.142 3.358 7.5 7.5 7.5s7.5-3.358 7.5-7.5v-27.608h27.608c4.142 0 7.5-3.358 7.5-7.5.001-4.142-3.357-7.5-7.499-7.5zm317.342-242.984h-37.077c-4.142 0-7.5 3.358-7.5 7.5s3.358 7.5 7.5 7.5h37.077c29.773 0 53.996 24.222 53.996 53.996v181.215c-10.83 17.367-22.664 23.005-47.447 23.005-38.044 0-68.996 30.951-68.996 68.996 0 24.782-5.638 36.617-23.005 47.447h-95.626c-4.142 0-7.5 3.358-7.5 7.5s3.358 7.5 7.5 7.5h97.728c31.601 0 76.793-11.424 108.857-43.488 32.065-32.066 43.489-77.258 43.489-108.858v-183.317c0-38.045-30.951-68.996-68.996-68.996zm14.901 350.563c-21.521 21.521-50.41 32.686-75.027 36.972 9.003-11.197 12.679-25.252 12.679-45.324 0-29.773 24.222-53.996 53.996-53.996 20.072 0 34.126-3.676 45.324-12.679-4.286 24.618-15.451 53.507-36.972 75.027zm-231.942 39.095h-49.626c-29.773 0-53.996-24.223-53.996-53.996v-.39c34.296-12.9 58.764-46.038 58.764-84.788s-24.468-71.888-58.764-84.788v-96.7c0-7.819 1.693-15.484 4.927-22.516 8.704 4.179 18.448 6.524 28.731 6.524 8.26 0 16.168-1.523 23.474-4.284l26.708 26.708c10.709 10.71 28.136 10.709 38.846 0 10.71-10.71 10.71-28.136 0-38.846l-21.582-21.581h146.216c4.142 0 7.5-3.358 7.5-7.5s-3.358-7.5-7.5-7.5h-148.459c.915-4.392 1.4-8.94 1.4-13.6 0-36.725-29.878-66.603-66.603-66.603s-66.602 29.878-66.602 66.603c0 21.036 9.814 39.813 25.092 52.028-4.69 9.471-7.146 19.909-7.146 30.567v92.502c-5.442-1.024-11.053-1.567-16.789-1.567-49.932 0-90.554 40.622-90.554 90.553s40.622 90.553 90.553 90.553c5.774 0 11.421-.55 16.897-1.588 1.973 36.289 32.114 65.209 68.887 65.209h49.626c4.142 0 7.5-3.358 7.5-7.5s-3.358-7.5-7.5-7.5zm8.456-342.47c4.861 4.861 4.861 12.771 0 17.632-4.862 4.862-12.772 4.861-17.633.001l-23.36-23.36c6.923-4.721 12.912-10.71 17.633-17.633zm-130.023-60.788c0-28.454 23.149-51.603 51.602-51.603 28.454 0 51.603 23.149 51.603 51.603s-23.149 51.603-51.603 51.603c-28.453 0-51.602-23.148-51.602-51.603zm-13.843 339.637c-41.66 0-75.553-33.893-75.553-75.553s33.893-75.553 75.553-75.553 75.553 33.893 75.553 75.553-33.893 75.553-75.553 75.553zm291.594-49.654c0-4.142-3.358-7.5-7.5-7.5h-129.953c-4.142 0-7.5 3.358-7.5 7.5s3.358 7.5 7.5 7.5h129.953c4.142 0 7.5-3.358 7.5-7.5zm-134.312-137.138c0-3.455 2.811-6.265 6.265-6.265s6.265 2.811 6.265 6.265c0 4.142 3.358 7.5 7.5 7.5s7.5-3.358 7.5-7.5c0-11.726-9.539-21.265-21.265-21.265s-21.265 9.54-21.265 21.265c0 4.142 3.358 7.5 7.5 7.5s7.5-3.358 7.5-7.5z"/></g><g/><g/><g/><g/><g/><g/><g/><g/><g/><g/><g/><g/><g/><g/><g/></svg>