<svg id="Capa_1" enable-background="new 0 0 511.94 511.94" height="512" viewBox="0 0 511.94 511.94" width="512" xmlns="http://www.w3.org/2000/svg"><g><path d="m130.285 431.124c-2.378 3.392-1.557 8.069 1.834 10.447 16.475 11.553 35.869 17.659 56.086 17.659h105.41c54.086 0 97.85-43.755 97.85-97.85 0-53.955-43.896-97.85-97.85-97.85h-105.41c-26.136 0-50.712 10.177-69.204 28.657-33.594 33.595-37.228 84.639-13.164 122.051 2.241 3.484 6.882 4.491 10.365 2.25s4.491-6.881 2.25-10.365c-20.406-31.723-17.228-74.945 11.154-103.327 15.657-15.647 36.468-24.265 58.599-24.265h105.41c45.684 0 82.85 37.167 82.85 82.85 0 45.795-37.047 82.85-82.85 82.85h-105.41c-17.12 0-33.536-5.167-47.474-14.94-3.392-2.38-8.068-1.558-10.446 1.833z"/><path d="m452.296 0h-138.74c-4.143 0-7.5 3.358-7.5 7.5s3.357 7.5 7.5 7.5h138.74c24.614 0 44.64 20.025 44.64 44.64v76.43c0 24.615-20.025 44.64-44.64 44.64h-114.82c-5.928 0-11.728 2.401-15.912 6.585l-35.508 35.491v-19.576c0-12.407-10.094-22.5-22.5-22.5h-15.73c-28.739 0-52.12-23.386-52.12-52.13v-68.94c0-24.615 20.021-44.64 44.63-44.64h38.22c4.143 0 7.5-3.358 7.5-7.5s-3.357-7.5-7.5-7.5h-38.22c-32.88 0-59.63 26.754-59.63 59.64v68.94c0 16.027 5.652 30.753 15.057 42.309-65.133 15.31-116.753 62.9-138.859 123.638-4.036.642-7.969 1.654-11.788 3.008v-72.659c12.972-3.342 22.585-15.14 22.585-29.141 0-16.591-13.498-30.088-30.088-30.088s-30.089 13.497-30.089 30.088c0 14.003 9.616 25.803 22.591 29.143v80.175c-35.212 23.569-40.709 73.778-10.283 104.231 11.147 11.148 25.686 17.991 41.255 19.505 24.75 49.372 75.795 83.152 134.638 83.152h90.36c59.093 0 109.973-33.874 134.66-83.164 34.235-3.347 61.069-32.106 61.069-67.396 0-33.397-24.288-61.601-56.893-66.84-11.912-32.73-33.124-63.407-62.818-86.855-3.252-2.568-7.968-2.014-10.534 1.238-2.567 3.25-2.013 7.967 1.237 10.534 42.492 33.556 68.838 85.049 68.838 141.924 0 74.611-60.367 135.56-135.56 135.56h-90.36c-74.083 0-135.55-60.064-135.55-135.56 0-88.692 64.022-162.942 149.028-177.948 10.931 7.722 24.25 12.278 38.622 12.278h15.73c4.136 0 7.5 3.364 7.5 7.5v19.59c0 13.324 16.2 20.026 25.603 10.604l35.512-35.501c1.394-1.393 3.327-2.192 5.306-2.192h114.82c32.886 0 59.64-26.754 59.64-59.64v-76.433c0-32.886-26.754-59.64-59.639-59.64zm14.519 361.38c0 24.632-16.737 44.947-39.003 50.926 5.86-16.257 8.833-33.329 8.833-50.926 0-17.083-2.193-33.934-6.519-50.259 21.537 6.759 36.689 26.701 36.689 50.259zm-444.291-165.645c0-8.32 6.769-15.088 15.088-15.088s15.088 6.769 15.088 15.088-6.769 15.088-15.088 15.088-15.088-6.768-15.088-15.088zm-7.529 165.645c0-22.852 14.914-43.317 36.698-50.252-4.325 16.323-6.518 33.173-6.518 50.252 0 17.596 2.974 34.668 8.834 50.926-22.186-5.958-39.014-26.205-39.014-50.926z"/><path d="m346.318 127.941c16.591 0 30.089-13.498 30.089-30.088s-13.498-30.088-30.089-30.088-30.088 13.497-30.088 30.088 13.497 30.088 30.088 30.088zm0-45.177c8.32 0 15.089 6.769 15.089 15.088s-6.769 15.088-15.089 15.088c-8.319 0-15.088-6.769-15.088-15.088s6.769-15.088 15.088-15.088z"/><path d="m466.759 97.853c0-16.591-13.497-30.088-30.088-30.088s-30.089 13.498-30.089 30.088 13.498 30.088 30.089 30.088 30.088-13.498 30.088-30.088zm-45.176 0c0-8.32 6.769-15.088 15.089-15.088 8.319 0 15.088 6.769 15.088 15.088s-6.769 15.088-15.088 15.088c-8.321 0-15.089-6.769-15.089-15.088z"/><path d="m255.965 67.764c-16.591 0-30.088 13.498-30.088 30.088s13.498 30.088 30.088 30.088 30.088-13.498 30.088-30.088-13.497-30.088-30.088-30.088zm0 45.177c-8.32 0-15.088-6.769-15.088-15.088s6.769-15.088 15.088-15.088 15.088 6.769 15.088 15.088-6.768 15.088-15.088 15.088z"/><path d="m240.904 401.33c20.39-.001 37.459-18.013 37.446-41.031-.006-11.428-4.343-19.418-12.892-23.748-7.219-3.657-16.348-3.982-24.572-3.982-12.155.006-37.449.019-37.435 27.767.012 22.157 16.304 40.995 37.453 40.994zm-.009-53.762c5.138 0 13.248.065 17.787 2.363 2.423 1.228 4.666 3.333 4.669 10.374.006 13.695-9.539 26.018-22.436 26.024-12.774.006-22.456-12.144-22.462-26.002-.006-9.721 3.089-12.749 22.442-12.759z"/><path d=""/><path d="m168.853 344.876c-.001-1.881.731-3.65 2.06-4.981 4.397-4.401 12.022-1.314 12.025 4.974.002 4.141 3.359 7.496 7.5 7.496 4.13 0 7.502-3.347 7.5-7.504-.007-12.151-9.893-22.032-22.043-22.032-12.165 0-22.049 9.846-22.042 22.053.002 4.141 3.359 7.497 7.5 7.497 4.123 0 7.502-3.338 7.5-7.503z"/><path d="m298.848 344.811c-.002-3.884 3.156-7.045 7.04-7.047 3.891-.002 7.044 3.147 7.046 7.039.002 4.142 3.359 7.497 7.5 7.497 4.132 0 7.502-3.348 7.5-7.503-.006-12.173-9.858-22.032-22.043-22.032-12.149 0-22.049 9.887-22.043 22.054.002 4.141 3.359 7.497 7.5 7.497 4.131-.002 7.502-3.349 7.5-7.505z"/></g></svg>